PathFileType	4	(X/Y/Z)	/Users/itak/Documents/Research/Walk-IL/dataset/trc/00380_00012.trc
DataRate	CameraRate	NumFrames	NumMarkers	Units	OrigDataRate	OrigDataStartFrame	OrigNumFrames
100.000000	100.000000	4	57	mm	100.000000	0	559
Frame#	Time	RPSI			LPSI			L3			STRN			T10			C7			CLAV			RBAK			LBAK			LSHO			LUPA			LAEL			LAOL			LWTS			LWPS			LFRA			LIFD			LHPS			LHTS			RSHO			RUPA			RAEL			RAOL			RWPS			RFRA			RIFD			RBHD			LFHD			RFHD			LBHD			LHIP			RHIP			RASI			LASI			LKNE			LTHI			LANK			LTIP			LTOE			LMT1			LMT5			LHEE			RKNE			RTHI			RANK			RTIP			RTOE			RMT1			RMT5			RHEE			RWTS			RHPS			RHTS			*53			*54			*55			*56			
		X1	Y1	Z1	X2	Y2	Z2	X3	Y3	Z3	X4	Y4	Z4	X5	Y5	Z5	X6	Y6	Z6	X7	Y7	Z7	X8	Y8	Z8	X9	Y9	Z9	X10	Y10	Z10	X11	Y11	Z11	X12	Y12	Z12	X13	Y13	Z13	X14	Y14	Z14	X15	Y15	Z15	X16	Y16	Z16	X17	Y17	Z17	X18	Y18	Z18	X19	Y19	Z19	X20	Y20	Z20	X21	Y21	Z21	X22	Y22	Z22	X23	Y23	Z23	X24	Y24	Z24	X25	Y25	Z25	X26	Y26	Z26	X27	Y27	Z27	X28	Y28	Z28	X29	Y29	Z29	X30	Y30	Z30	X31	Y31	Z31	X32	Y32	Z32	X33	Y33	Z33	X34	Y34	Z34	X35	Y35	Z35	X36	Y36	Z36	X37	Y37	Z37	X38	Y38	Z38	X39	Y39	Z39	X40	Y40	Z40	X41	Y41	Z41	X42	Y42	Z42	X43	Y43	Z43	X44	Y44	Z44	X45	Y45	Z45	X46	Y46	Z46	X47	Y47	Z47	X48	Y48	Z48	X49	Y49	Z49	X50	Y50	Z50	X51	Y51	Z51	X52	Y52	Z52	X53	Y53	Z53	X54	Y54	Z54	X55	Y55	Z55	X56	Y56	Z56	X57	Y57	Z57	

1	0	-1588.62353515625	991.9843139648438	125.1682205200195	-1604.1748046875	985.0938720703125	-5.225830554962158	-1597.847900390625	1056.229248046875	62.34097671508789	-1367.060302734375	1221.87158203125	48.52437973022461	-1613.73828125	1160.703125	59.55162048339844	-1585.212768554688	1410.410522460938	49.69309997558594	-1424.85693359375	1339.443115234375	49.79405212402344	-1619.09375	1263.10888671875	117.8173294067383	-1600.882690429688	1373.384765625	-53.21687698364258	-1516.994995117188	1394.604736328125	-105.5804138183594	-1536.958374023438	1279.562133789062	-179.1408538818359	-1504.10791015625	1085.201293945312	-212.1304779052734	-1560.305541992188	1058.145874023438	-154.0298156738281	-1396.352416992188	877.70361328125	-163.1573638916016	-1436.39306640625	862.3231201171875	-232.6322326660156	-1475.949584960938	983.1375732421875	-223.3223114013672	-1376.77294921875	698.2078247070312	-177.3155059814453	-1413.040771484375	779.1353759765625	-225.51611328125	-1363.71630859375	786.1306762695312	-185.5795135498047	-1523.62353515625	1392.36767578125	204.1622924804688	-1533.857788085938	1328.224609375	264.4304504394531	-1515.828491210938	1070.458984375	319.2188415527344	-1539.502319335938	1054.85107421875	227.3209533691406	-1407.418579101562	856.2943725585938	355.0719604492188	-1483.588623046875	1008.160705566406	337.6022338867188	-1355.303833007812	695.94482421875	303.7143859863281	-1544.781127929688	1602.251220703125	134.7251892089844	-1404.797729492188	1605.088134765625	-7.035522937774658	-1412.60546875	1608.738525390625	115.3017654418945	-1552.546752929688	1596.15380859375	-27.41091156005859	-1525.451293945312	972.7516479492188	-124.7806167602539	-1498.022827148438	966.3026733398438	232.6996765136719	-1370.556762695312	975.9193115234375	167.4064178466797	-1409.126831054688	969.7085571289062	-93.84787750244141	-1485.906005859375	479.8043823242188	-115.9846343994141	-1491.654418945312	622.2301635742188	-125.2228240966797	-1579.435668945312	44.18532562255859	-77.57688140869141	-1536.177490234375	248.6618957519531	-109.0051727294922	-1362.860473632812	47.05348205566406	-21.79996681213379	-1441.187377929688	47.90121459960938	10.40823745727539	-1453.29345703125	42.32736587524414	-93.7525634765625	-1615.236572265625	42.73611831665039	-18.69040679931641	-1483.517333984375	476.9923095703125	209.8502349853516	-1428.314208984375	737.979248046875	226.9685363769531	-1534.885498046875	54.90662384033203	172.4114990234375	-1477.622924804688	351.2684326171875	193.6458892822266	-1361.274169921875	42.02656936645508	94.95700073242188	-1438.66650390625	46.64810562133789	72.73905181884766	-1450.3154296875	46.16240310668945	172.8313598632812	-1611.944946289062	45.63478469848633	124.7562789916992	-1372.143432617188	866.422607421875	291.1946411132812	-1391.918823242188	767.7449340820312	361.8246459960938	-1339.185424804688	766.2302856445312	317.4429626464844	nan	nan	nan	nan	nan	nan	nan	nan	nan	nan	nan	nan	
2	0.01	-1588.643798828125	991.995849609375	125.1496353149414	-1604.181884765625	985.07958984375	-5.228033065795898	-1597.8671875	1056.2275390625	62.32674789428711	-1367.189453125	1221.884521484375	48.45738983154297	-1613.75634765625	1160.696411132812	59.55058288574219	-1585.283203125	1410.396118164062	49.66886901855469	-1424.867553710938	1339.438842773438	49.77168273925781	-1619.13330078125	1263.111450195312	117.7814178466797	-1600.933837890625	1373.368896484375	-53.24716949462891	-1517.0537109375	1394.608520507812	-105.6014938354492	-1537.02587890625	1279.57080078125	-179.1882171630859	-1504.108276367188	1085.223999023438	-212.1828155517578	-1560.211791992188	1058.147827148438	-154.0454559326172	-1396.263671875	877.8170166015625	-163.3495941162109	-1436.279907226562	862.388671875	-232.7301940917969	-1475.922607421875	983.1676635742188	-223.3959655761719	-1376.577880859375	698.3099975585938	-177.4520568847656	-1412.867797851562	779.2017822265625	-225.5951232910156	-1363.592895507812	786.225830078125	-185.6771392822266	-1523.650390625	1392.376586914062	204.1249084472656	-1533.894409179688	1328.26220703125	264.4161987304688	-1515.816162109375	1070.49951171875	319.2685546875	-1539.452514648438	1054.825927734375	227.3780517578125	-1407.121337890625	856.4447631835938	355.0803833007812	-1483.541870117188	1008.222595214844	337.6490478515625	-1354.833374023438	696.17822265625	303.8115844726562	-1544.834594726562	1602.267333984375	134.7005920410156	-1404.846435546875	1605.095825195312	-7.058526039123535	-1412.6103515625	1608.736572265625	115.2795486450195	-1552.569091796875	1596.16015625	-27.42275428771973	-1525.475463867188	972.748046875	-124.8023529052734	-1498.111694335938	966.3076171875	232.6658477783203	-1370.574951171875	975.9397583007812	167.3816680908203	-1409.106323242188	969.7395629882812	-93.86944580078125	-1485.909301757812	479.8092651367188	-115.9959030151367	-1491.671875	622.2261352539062	-125.2365036010742	-1579.436401367188	44.18909072875977	-77.57042694091797	-1536.182861328125	248.6579132080078	-109.0011367797852	-1362.859985351562	47.05514526367188	-21.7998161315918	-1441.1806640625	47.89567947387695	10.4164342880249	-1453.291137695312	42.32425689697266	-93.75560760498047	-1615.236938476562	42.73322677612305	-18.69027519226074	-1483.501586914062	476.9857482910156	209.8269348144531	-1428.302368164062	737.9859619140625	226.9527587890625	-1534.882080078125	54.91815185546875	172.4051208496094	-1477.6181640625	351.2754211425781	193.6194458007812	-1361.274658203125	42.02892303466797	94.95668029785156	-1438.62255859375	46.64870834350586	72.75187683105469	-1450.331298828125	46.1641731262207	172.8338928222656	-1611.950317382812	45.70964813232422	124.7470474243164	-1371.926147460938	866.6417236328125	291.1941223144531	-1391.629638671875	767.8709106445312	361.7522277832031	-1338.715209960938	766.457763671875	317.4975891113281	nan	nan	nan	nan	nan	nan	nan	nan	nan	nan	nan	nan	
3	0.02	-1588.669189453125	992.0094604492188	125.1252670288086	-1604.191040039062	985.0634155273438	-5.233164310455322	-1597.88916015625	1056.223388671875	62.30852508544922	-1367.32763671875	1221.8984375	48.37914657592773	-1613.776000976562	1160.685546875	59.54811096191406	-1585.3720703125	1410.37939453125	49.63401031494141	-1424.882934570312	1339.434692382812	49.74406051635742	-1619.18701171875	1263.1162109375	117.7386093139648	-1600.997436523438	1373.352416992188	-53.28191757202148	-1517.136840820312	1394.612426757812	-105.6346969604492	-1537.109375	1279.579345703125	-179.2404479980469	-1504.116455078125	1085.247680664062	-212.2455291748047	-1560.115600585938	1058.146362304688	-154.0686187744141	-1396.166137695312	877.9436645507812	-163.5674896240234	-1436.1630859375	862.4610595703125	-232.8466033935547	-1475.895629882812	983.2005004882812	-223.48291015625	-1376.383178710938	698.4033203125	-177.6318206787109	-1412.682250976562	779.275390625	-225.6936645507812	-1363.47412109375	786.3206176757812	-185.7865295410156	-1523.681762695312	1392.38720703125	204.0810546875	-1533.942749023438	1328.304931640625	264.3946533203125	-1515.800537109375	1070.544311523438	319.3204040527344	-1539.36328125	1054.78173828125	227.4516143798828	-1406.749145507812	856.6141967773438	355.1069946289062	-1483.474609375	1008.292053222656	337.6983337402344	-1354.27294921875	696.4651489257812	303.9107055664062	-1544.898559570312	1602.28466796875	134.6657562255859	-1404.905639648438	1605.101684570312	-7.089097023010254	-1412.63720703125	1608.728881835938	115.2463684082031	-1552.594848632812	1596.1669921875	-27.44107055664062	-1525.499755859375	972.7421875	-124.8295288085938	-1498.216918945312	966.31396484375	232.6258239746094	-1370.599975585938	975.9636840820312	167.3516693115234	-1409.08984375	969.775146484375	-93.89985656738281	-1485.913330078125	479.8140869140625	-116.0099029541016	-1491.693359375	622.2200927734375	-125.255744934082	-1579.436157226562	44.19296264648438	-77.56391143798828	-1536.189086914062	248.6527099609375	-108.9982833862305	-1362.859497070312	47.05715560913086	-21.79993057250977	-1441.1796875	47.88918304443359	10.42209339141846	-1453.289916992188	42.32266235351562	-93.75642395019531	-1615.236938476562	42.72936248779297	-18.68987846374512	-1483.48583984375	476.9771423339844	209.7976226806641	-1428.281860351562	737.9951782226562	226.9329681396484	-1534.8798828125	54.92979431152344	172.4002990722656	-1477.611572265625	351.282958984375	193.5851593017578	-1361.275268554688	42.03008270263672	94.95606994628906	-1438.584594726562	46.64804458618164	72.76376342773438	-1450.343994140625	46.16609191894531	172.8355560302734	-1611.9482421875	45.75304794311523	124.7126846313477	-1371.64453125	866.88916015625	291.1980895996094	-1391.253173828125	768.0233764648438	361.6705322265625	-1338.170776367188	766.752197265625	317.5526428222656	nan	nan	nan	nan	nan	nan	nan	nan	nan	nan	nan	nan	
4	0.03	-1588.699340820312	992.0242309570312	125.0955657958984	-1604.20556640625	985.0490112304688	-5.243772506713867	-1597.911987304688	1056.2158203125	62.28677368164062	-1367.453491210938	1221.911499023438	48.29792404174805	-1613.793701171875	1160.669677734375	59.54396820068359	-1585.475463867188	1410.361694335938	49.58817672729492	-1424.903076171875	1339.431274414062	49.71281051635742	-1619.25439453125	1263.123901367188	117.690803527832	-1601.071166992188	1373.336669921875	-53.31929779052734	-1517.244750976562	1394.61572265625	-105.6815795898438	-1537.204833984375	1279.585693359375	-179.2927093505859	-1504.135375976562	1085.268920898438	-212.3141326904297	-1560.030029296875	1058.139404296875	-154.0990142822266	-1396.066284179688	878.0703735351562	-163.7882995605469	-1436.05859375	862.53173828125	-232.9724884033203	-1475.876098632812	983.232177734375	-223.5774230957031	-1376.228393554688	698.4736938476562	-177.8534088134766	-1412.506713867188	779.3475341796875	-225.8061828613281	-1363.376708984375	786.4033813476562	-185.9004974365234	-1523.71533203125	1392.398193359375	204.0339965820312	-1534	1328.347534179688	264.3650207519531	-1515.780151367188	1070.5888671875	319.3671264648438	-1539.22802734375	1054.714965820312	227.5389251708984	-1406.327880859375	856.7864990234375	355.1544494628906	-1483.385131835938	1008.362182617188	337.743408203125	-1353.664794921875	696.7843017578125	303.9964904785156	-1544.968994140625	1602.302001953125	134.6202087402344	-1404.970947265625	1605.10400390625	-7.125929832458496	-1412.689697265625	1608.713012695312	115.2020797729492	-1552.622436523438	1596.173217773438	-27.46623611450195	-1525.520263671875	972.734130859375	-124.8606491088867	-1498.3330078125	966.3211669921875	232.5825653076172	-1370.6318359375	975.9892578125	167.3179473876953	-1409.0830078125	969.8118896484375	-93.93862915039062	-1485.91796875	479.8183288574219	-116.0263061523438	-1491.716430664062	622.2118530273438	-125.2801208496094	-1579.434204101562	44.19668579101562	-77.55782318115234	-1536.194702148438	248.6461334228516	-108.9974822998047	-1362.859252929688	47.05907440185547	-21.80035591125488	-1441.181396484375	47.88166427612305	10.42677879333496	-1453.289916992188	42.32350921630859	-93.75453186035156	-1615.236450195312	42.72478485107422	-18.68903160095215	-1483.472045898438	476.966796875	209.7639007568359	-1428.250854492188	738.0069580078125	226.9097747802734	-1534.880004882812	54.93967056274414	172.3982696533203	-1477.603271484375	351.2902221679688	193.5446166992188	-1361.275756835938	42.02965545654297	94.95513153076172	-1438.559326171875	46.64534378051758	72.77323150634766	-1450.35107421875	46.168212890625	172.8359222412109	-1611.93798828125	45.75193405151367	124.6573104858398	-1371.313842773438	867.1416625976562	291.2066955566406	-1390.810791015625	768.189697265625	361.58544921875	-1337.6171875	767.090576171875	317.5971984863281	nan	nan	nan	nan	nan	nan	nan	nan	nan	nan	nan	nan	
